# xmcd
#
# Track frame offsets:
#	150
#	11785
#	22130
#	33820
#	43660
#	56497
#	68067
#	80492
#	92680
#	116232
#	129467
#	143217
#	156845
#	169057
#	179380
#	192362
#	206262
#	217395
#	230482
#	244140
#
# Disc length: 3456 seconds
#
# Revision: 1
# Processed by: cddbd v1.5.1PL0 Copyright (c) Steve Scherf et al.
# Submitted via: audiograbber 1.83.01
#
DISCID=210d7e14
DTITLE=Various Artist - 20 Classic Rhythm and Blues
DYEAR=1996
DGENRE=R&B
TTITLE0=He Will Break Your Heart (Jerry Butler)
TTITLE1=I'm A Telling You (Jerry Butler)
TTITLE2=Money Honey (The Drifters)
TTITLE3=Save The last Dance For Me (The Drifters)
TTITLE4=Up On The Roof (The Drifters)
TTITLE5=Under The Boardwalk (The Drifters)
TTITLE6=Choo Choo Ch'Boogie (Louis Jordan)
TTITLE7=Caldonia (Louis Jordan)
TTITLE8=Saturday Night Fish Fry (Louis Jordan)
TTITLE9=The Honey Dripper (Part One) (Joe Liggins)
TTITLE10=The Honey Dripper (part Two) (Joe Liggins)
TTITLE11=I've Got A Right To Cry (Joe Liggins)
TTITLE12=Pink Champagne (Joe Liggins)
TTITLE13=Send Me (Lloyd Price)
TTITLE14=Just Because (Lloyd Price)
TTITLE15=Questions (Lloyd Price)
TTITLE16=Personality (Lloyd Price)
TTITLE17=Stagger Lee (Lloyd Price)
TTITLE18=Chains Of Love (Joe Turner)
TTITLE19=Shake Rattle and Roll
EXTD=
EXTT0=
EXTT1=
EXTT2=
EXTT3=
EXTT4=
EXTT5=
EXTT6=
EXTT7=
EXTT8=
EXTT9=
EXTT10=
EXTT11=
EXTT12=
EXTT13=
EXTT14=
EXTT15=
EXTT16=
EXTT17=
EXTT18=
EXTT19=
PLAYORDER=
